<svg width="124" height="32" viewBox="0 0 124 32" fill="none" xmlns="http://www.w3.org/2000/svg">
<path d="M0 6C0 2.68629 2.68629 0 6 0H26C29.3137 0 32 2.68629 32 6V26C32 29.3137 29.3137 32 26 32H6C2.68629 32 0 29.3137 0 26V6Z" fill="#FF444F"/>
<path d="M6 0C2.68629 0 0 2.68629 0 6V6.17428L29.9144 1.45264C28.8637 0.547333 27.4958 0 26 0H6Z" fill="#E12E3A"/>
<path d="M30.5319 2.06775L25.0444 32L26 32C29.3137 32 32 29.3137 32 26V6C32 4.49576 31.4465 3.12081 30.5319 2.06775Z" fill="#E12E3A"/>
<path d="M8.0382 11.4955C9.38153 11.4955 10.4129 11.7338 11.1322 12.2105C11.8515 12.6785 12.2112 13.4498 12.2112 14.5245C12.2112 15.6078 11.8472 16.3922 11.1192 16.8775C10.3912 17.3542 9.3512 17.5925 7.9992 17.5925H7.3622V20.6085H5.3342V11.7295C5.7762 11.6428 6.2442 11.5822 6.7382 11.5475C7.2322 11.5128 7.66553 11.4955 8.0382 11.4955ZM8.1682 13.2245C8.02087 13.2245 7.87354 13.2288 7.7262 13.2375C7.58753 13.2462 7.4662 13.2548 7.3622 13.2635V15.8635H7.9992C8.7012 15.8635 9.22987 15.7682 9.5852 15.5775C9.94054 15.3868 10.1182 15.0315 10.1182 14.5115C10.1182 14.2602 10.0705 14.0522 9.9752 13.8875C9.88853 13.7228 9.75854 13.5928 9.5852 13.4975C9.42054 13.3935 9.21687 13.3242 8.9742 13.2895C8.73153 13.2462 8.46287 13.2245 8.1682 13.2245Z" fill="white"/>
<path d="M18.4584 13.9655C18.4584 14.2948 18.3934 14.6112 18.2634 14.9145C18.1334 15.2178 17.9644 15.5125 17.7564 15.7985C17.5484 16.0758 17.3144 16.3445 17.0544 16.6045C16.7944 16.8645 16.5387 17.1115 16.2874 17.3455C16.1574 17.4668 16.0144 17.6055 15.8584 17.7615C15.7111 17.9088 15.5681 18.0605 15.4294 18.2165C15.2907 18.3725 15.1651 18.5198 15.0524 18.6585C14.9484 18.7885 14.8834 18.8968 14.8574 18.9835H18.7314V20.6085H12.7254C12.7081 20.5132 12.6994 20.3918 12.6994 20.2445C12.6994 20.0972 12.6994 19.9932 12.6994 19.9325C12.6994 19.5165 12.7644 19.1352 12.8944 18.7885C13.0331 18.4418 13.2107 18.1212 13.4274 17.8265C13.6441 17.5232 13.8867 17.2415 14.1554 16.9815C14.4327 16.7215 14.7057 16.4615 14.9744 16.2015C15.1824 16.0022 15.3774 15.8158 15.5594 15.6425C15.7414 15.4605 15.9017 15.2872 16.0404 15.1225C16.1791 14.9492 16.2874 14.7802 16.3654 14.6155C16.4434 14.4422 16.4824 14.2688 16.4824 14.0955C16.4824 13.7142 16.3741 13.4455 16.1574 13.2895C15.9407 13.1335 15.6721 13.0555 15.3514 13.0555C15.1174 13.0555 14.8964 13.0945 14.6884 13.1725C14.4891 13.2418 14.3027 13.3285 14.1294 13.4325C13.9647 13.5278 13.8217 13.6275 13.7004 13.7315C13.5791 13.8268 13.4881 13.9048 13.4274 13.9655L12.4654 12.6135C12.8467 12.2582 13.2887 11.9678 13.7914 11.7425C14.3027 11.5085 14.8487 11.3915 15.4294 11.3915C15.9581 11.3915 16.4131 11.4522 16.7944 11.5735C17.1757 11.6948 17.4877 11.8682 17.7304 12.0935C17.9817 12.3102 18.1637 12.5788 18.2764 12.8995C18.3977 13.2115 18.4584 13.5668 18.4584 13.9655Z" fill="white"/>
<path d="M22.4931 11.4955C23.8364 11.4955 24.8678 11.7338 25.5871 12.2105C26.3064 12.6785 26.6661 13.4498 26.6661 14.5245C26.6661 15.6078 26.3021 16.3922 25.5741 16.8775C24.8461 17.3542 23.8061 17.5925 22.4541 17.5925H21.8171V20.6085H19.7891V11.7295C20.2311 11.6428 20.6991 11.5822 21.1931 11.5475C21.6871 11.5128 22.1204 11.4955 22.4931 11.4955ZM22.6231 13.2245C22.4758 13.2245 22.3284 13.2288 22.1811 13.2375C22.0424 13.2462 21.9211 13.2548 21.8171 13.2635V15.8635H22.4541C23.1561 15.8635 23.6847 15.7682 24.0401 15.5775C24.3954 15.3868 24.5731 15.0315 24.5731 14.5115C24.5731 14.2602 24.5254 14.0522 24.4301 13.8875C24.3434 13.7228 24.2134 13.5928 24.0401 13.4975C23.8754 13.3935 23.6718 13.3242 23.4291 13.2895C23.1864 13.2462 22.9178 13.2245 22.6231 13.2245Z" fill="white"/>
<path fill-rule="evenodd" clip-rule="evenodd" d="M48.3284 8.66363L47.5407 13.1307H44.8065C42.2556 13.1307 39.8242 15.1974 39.3735 17.7483L39.1828 18.8341C38.7343 21.385 40.4362 23.4518 42.9871 23.4518H45.2676C47.1268 23.4518 48.898 21.9467 49.2249 20.0876L51.3252 8.18188L48.3284 8.66363ZM46.3883 19.6662C46.2877 20.2406 45.7707 20.708 45.1963 20.708H43.8109C42.6643 20.708 41.8972 19.7773 42.0984 18.6287L42.2179 17.9516C42.4212 16.8051 43.5153 15.8723 44.6619 15.8723H47.0573L46.3883 19.6662Z" fill="#414652"/>
<path d="M69.3857 23.4525H72.2237L74.0179 13.274H71.1799L69.3857 23.4525Z" fill="#414652"/>
<path d="M69.4802 14.6009L69.4806 14.5985C69.5517 14.1961 69.6228 13.7937 69.6937 13.3912C66.7816 12.6409 64.5133 13.4171 63.5897 13.7996C63.5897 13.7996 62.2721 21.268 61.8865 23.4549H64.7264C65.1873 20.8413 65.6481 18.2271 66.1084 15.6135C66.5346 15.5285 67.9218 15.3954 69.2663 15.8133C69.3375 15.4091 69.4089 15.005 69.4802 14.6009Z" fill="#414652"/>
<path fill-rule="evenodd" clip-rule="evenodd" d="M58.1839 13.1297H55.9767C53.8241 13.1297 51.7722 14.8736 51.3927 17.0262L50.9463 19.5562C50.5669 21.7088 52.0027 23.4528 54.1554 23.4528H58.8547L59.3368 20.7174H54.9203C54.2035 20.7174 53.7235 20.1368 53.8514 19.4179L53.8661 19.3319H60.9863L61.3929 17.0262C61.7723 14.8736 60.3365 13.1297 58.1839 13.1297ZM58.5444 16.8083L58.5276 16.955H54.2937L54.3167 16.825C54.4445 16.1082 55.0986 15.4773 55.8174 15.4773H57.4712C58.1818 15.4773 58.6618 16.0977 58.5444 16.8083Z" fill="#414652"/>
<path d="M78.9504 19.9876C80.239 17.6693 81.6597 14.6277 82.2516 13.274H85.0939C84.1264 15.8462 81.9092 20.2217 79.7615 23.4525H76.9214C75.9356 20.3776 75.299 16.0932 75.1775 13.274H78.0177C78.0689 14.1936 78.4806 17.6046 78.9504 19.9876Z" fill="#414652"/>
<path d="M93.1588 9.09737C95.3288 9.09737 96.9948 9.48237 98.1568 10.2524C99.3188 11.0084 99.8998 12.2544 99.8998 13.9904C99.8998 15.7404 99.3118 17.0074 98.1358 17.7914C96.9598 18.5614 95.2798 18.9464 93.0958 18.9464H92.0668V23.8184H88.7908V9.47537C89.5048 9.33537 90.2608 9.23737 91.0588 9.18137C91.8568 9.12537 92.5568 9.09737 93.1588 9.09737ZM93.3688 11.8904C93.1308 11.8904 92.8928 11.8974 92.6548 11.9114C92.4308 11.9254 92.2348 11.9394 92.0668 11.9534V16.1534H93.0958C94.2298 16.1534 95.0838 15.9994 95.6578 15.6914C96.2318 15.3834 96.5188 14.8094 96.5188 13.9694C96.5188 13.5634 96.4418 13.2274 96.2878 12.9614C96.1478 12.6954 95.9378 12.4854 95.6578 12.3314C95.3918 12.1634 95.0628 12.0514 94.6708 11.9954C94.2788 11.9254 93.8448 11.8904 93.3688 11.8904Z" fill="#414652"/>
<path d="M109.991 13.0874C109.991 13.6194 109.886 14.1304 109.676 14.6204C109.466 15.1104 109.193 15.5864 108.857 16.0484C108.521 16.4964 108.143 16.9304 107.723 17.3504C107.303 17.7704 106.89 18.1694 106.484 18.5474C106.274 18.7434 106.043 18.9674 105.791 19.2194C105.553 19.4574 105.322 19.7024 105.098 19.9544C104.874 20.2064 104.671 20.4444 104.489 20.6684C104.321 20.8784 104.216 21.0534 104.174 21.1934H110.432V23.8184H100.73C100.702 23.6644 100.688 23.4684 100.688 23.2304C100.688 22.9924 100.688 22.8244 100.688 22.7264C100.688 22.0544 100.793 21.4384 101.003 20.8784C101.227 20.3184 101.514 19.8004 101.864 19.3244C102.214 18.8344 102.606 18.3794 103.04 17.9594C103.488 17.5394 103.929 17.1194 104.363 16.6994C104.699 16.3774 105.014 16.0764 105.308 15.7964C105.602 15.5024 105.861 15.2224 106.085 14.9564C106.309 14.6764 106.484 14.4034 106.61 14.1374C106.736 13.8574 106.799 13.5774 106.799 13.2974C106.799 12.6814 106.624 12.2474 106.274 11.9954C105.924 11.7434 105.49 11.6174 104.972 11.6174C104.594 11.6174 104.237 11.6804 103.901 11.8064C103.579 11.9184 103.278 12.0584 102.998 12.2264C102.732 12.3804 102.501 12.5414 102.305 12.7094C102.109 12.8634 101.962 12.9894 101.864 13.0874L100.31 10.9034C100.926 10.3294 101.64 9.86037 102.452 9.49637C103.278 9.11837 104.16 8.92937 105.098 8.92937C105.952 8.92937 106.687 9.02737 107.303 9.22337C107.919 9.41937 108.423 9.69937 108.815 10.0634C109.221 10.4134 109.515 10.8474 109.697 11.3654C109.893 11.8694 109.991 12.4434 109.991 13.0874Z" fill="#414652"/>
<path d="M116.509 9.09737C118.679 9.09737 120.345 9.48237 121.507 10.2524C122.669 11.0084 123.25 12.2544 123.25 13.9904C123.25 15.7404 122.662 17.0074 121.486 17.7914C120.31 18.5614 118.63 18.9464 116.446 18.9464H115.417V23.8184H112.141V9.47537C112.855 9.33537 113.611 9.23737 114.409 9.18137C115.207 9.12537 115.907 9.09737 116.509 9.09737ZM116.719 11.8904C116.481 11.8904 116.243 11.8974 116.005 11.9114C115.781 11.9254 115.585 11.9394 115.417 11.9534V16.1534H116.446C117.58 16.1534 118.434 15.9994 119.008 15.6914C119.582 15.3834 119.869 14.8094 119.869 13.9694C119.869 13.5634 119.792 13.2274 119.638 12.9614C119.498 12.6954 119.288 12.4854 119.008 12.3314C118.742 12.1634 118.413 12.0514 118.021 11.9954C117.629 11.9254 117.195 11.8904 116.719 11.8904Z" fill="#414652"/>
</svg>
